<svg width="56" height="56" viewBox="0 0 56 56" fill="none" xmlns="http://www.w3.org/2000/svg">
<path d="M52.1719 34.125H49.9844V32.4844C49.9844 30.3735 48.2671 28.6562 46.1562 28.6562H39.5938C37.4829 28.6562 35.7656 30.3735 35.7656 32.4844V34.125H33.5781C31.4673 34.125 29.75 35.8423 29.75 37.9531V40.6875H56V37.9531C56 35.8423 54.2827 34.125 52.1719 34.125ZM46.7031 34.125H39.0469V32.4844C39.0469 32.1828 39.2922 31.9375 39.5938 31.9375H46.1562C46.4578 31.9375 46.7031 32.1828 46.7031 32.4844V34.125Z" fill="#0818D5"/>
<path d="M49.9844 45.6094C49.9844 46.5154 49.2498 47.25 48.3438 47.25C47.4377 47.25 46.7031 46.5154 46.7031 45.6094V43.9688H39.0469V45.6094C39.0469 46.5154 38.3123 47.25 37.4062 47.25C36.5002 47.25 35.7656 46.5154 35.7656 45.6094V43.9688H29.75V52.1719C29.75 54.2827 31.4673 56 33.5781 56H52.1719C54.2827 56 56 54.2827 56 52.1719V43.9688H49.9844V45.6094Z" fill="#0818D5"/>
<path d="M33.9062 0.165039V6.56249H40.3037C39.6495 3.35299 37.1158 0.819211 33.9062 0.165039V0.165039Z" fill="#0818D5"/>
<path d="M20.2343 19.7969C16.4982 19.7969 13.426 22.6938 13.1458 26.3594H27.3229C27.0427 22.6938 23.9705 19.7969 20.2343 19.7969Z" fill="#0818D5"/>
<path d="M20.2344 16.5156C22.0466 16.5156 23.5156 15.0466 23.5156 13.2344C23.5156 11.4222 22.0466 9.95312 20.2344 9.95312C18.4222 9.95312 16.9531 11.4222 16.9531 13.2344C16.9531 15.0466 18.4222 16.5156 20.2344 16.5156Z" fill="#0818D5"/>
<path d="M32.6618 30.9026C33.3829 27.7413 36.2172 25.375 39.5938 25.375H40.4688V9.84375H32.2656C31.3596 9.84375 30.625 9.10919 30.625 8.20312V0H1.64062C0.734562 0 0 0.734562 0 1.64062V54.3594C0 55.2654 0.734562 56 1.64062 56H27.5921C26.8824 54.894 26.4688 53.5807 26.4688 52.1719V37.9531C26.4688 34.3436 29.173 31.3537 32.6618 30.9026ZM9.29688 49.3281H7.10938C6.20331 49.3281 5.46875 48.5936 5.46875 47.6875C5.46875 46.7814 6.20331 46.0469 7.10938 46.0469H9.29688C10.2029 46.0469 10.9375 46.7814 10.9375 47.6875C10.9375 48.5936 10.2029 49.3281 9.29688 49.3281ZM9.29688 42.7656H7.10938C6.20331 42.7656 5.46875 42.0311 5.46875 41.125C5.46875 40.2189 6.20331 39.4844 7.10938 39.4844H9.29688C10.2029 39.4844 10.9375 40.2189 10.9375 41.125C10.9375 42.0311 10.2029 42.7656 9.29688 42.7656ZM9.29688 36.2031H7.10938C6.20331 36.2031 5.46875 35.4686 5.46875 34.5625C5.46875 33.6564 6.20331 32.9219 7.10938 32.9219H9.29688C10.2029 32.9219 10.9375 33.6564 10.9375 34.5625C10.9375 35.4686 10.2029 36.2031 9.29688 36.2031ZM23.5156 49.3281H15.8594C14.9533 49.3281 14.2188 48.5936 14.2188 47.6875C14.2188 46.7814 14.9533 46.0469 15.8594 46.0469H23.5156C24.4217 46.0469 25.1562 46.7814 25.1562 47.6875C25.1562 48.5936 24.4217 49.3281 23.5156 49.3281ZM23.5156 42.7656H15.8594C14.9533 42.7656 14.2188 42.0311 14.2188 41.125C14.2188 40.2189 14.9533 39.4844 15.8594 39.4844H23.5156C24.4217 39.4844 25.1562 40.2189 25.1562 41.125C25.1562 42.0311 24.4217 42.7656 23.5156 42.7656ZM23.5156 36.2031H15.8594C14.9533 36.2031 14.2188 35.4686 14.2188 34.5625C14.2188 33.6564 14.9533 32.9219 15.8594 32.9219H23.5156C24.4217 32.9219 25.1562 33.6564 25.1562 34.5625C25.1562 35.4686 24.4217 36.2031 23.5156 36.2031ZM11.4844 29.6406C10.5783 29.6406 9.84375 28.9061 9.84375 28V26.9062C9.84375 22.9099 12.1119 19.434 15.4281 17.6963C14.3394 16.5245 13.6719 14.9563 13.6719 13.2344C13.6719 9.61581 16.6158 6.67188 20.2344 6.67188C23.8529 6.67188 26.7969 9.61581 26.7969 13.2344C26.7969 14.9563 26.1294 16.5245 25.0406 17.6963C28.3569 19.434 30.625 22.9099 30.625 26.9062V28C30.625 28.9061 29.8904 29.6406 28.9844 29.6406H11.4844Z" fill="#0818D5"/>
</svg>
