<svg width="56" height="56" viewBox="0 0 56 56" fill="none" xmlns="http://www.w3.org/2000/svg">
<path d="M52.6094 36.3125C52.6094 34.5078 51.1328 33.0312 49.3281 33.0312C51.1328 33.0312 52.6094 31.5547 52.6094 29.75C52.6094 27.9453 51.1328 26.4687 49.3281 26.4687H35.8751C37.8766 20.464 37.8438 18.55 37.8438 14.875C37.8438 12.1449 35.6053 9.95312 32.9219 9.95312H31.9375C31.3141 9.95312 30.5266 10.4454 30.3624 11.2C28.7392 17.5198 26.2013 24.7717 19.7969 26.2406V49.9818L25.4733 51.8655C27.1468 52.4232 28.8859 52.7186 30.6578 52.7186H46.0469C47.8591 52.7187 49.3281 51.2495 49.3281 49.4375C49.3281 47.6253 47.8591 46.1562 46.0469 46.1562H49.3281C51.1328 46.1562 52.6094 44.6797 52.6094 42.875C52.6094 41.0703 51.1328 39.5937 49.3281 39.5937C51.1328 39.5937 52.6094 38.1172 52.6094 36.3125Z" fill="#0818D5"/>
<path d="M11.5938 23.1875H5.03125C4.12442 23.1875 3.39062 23.9213 3.39062 24.8281V54.3594C3.39062 55.2662 4.12442 56 5.03125 56H11.5938C14.3078 56 16.5156 53.7922 16.5156 51.0781V28.1094C16.5156 25.3953 14.3078 23.1875 11.5938 23.1875ZM11.5938 49.4375C10.6877 49.4375 9.95312 48.7029 9.95312 47.7969C9.95312 46.8906 10.6877 46.1562 11.5938 46.1562C12.4998 46.1562 13.2344 46.8906 13.2344 47.7969C13.2344 48.7029 12.4998 49.4375 11.5938 49.4375Z" fill="#0818D5"/>
<path d="M25.9605 7.23429L23.6405 4.91434C22.9997 4.27351 21.9614 4.27351 21.3206 4.91434C20.6798 5.55517 20.6798 6.59346 21.3206 7.23429L23.6405 9.55424C24.2814 10.1951 25.3196 10.1951 25.9605 9.55424C26.6013 8.91342 26.6013 7.87512 25.9605 7.23429Z" fill="#0818D5"/>
<path d="M44.5231 4.91434C43.8823 4.27351 42.844 4.27351 42.2032 4.91434L39.8832 7.23429C39.2424 7.87512 39.2424 8.91342 39.8832 9.55424C40.524 10.1951 41.5623 10.1951 42.2032 9.55424L44.5231 7.23429C45.1639 6.59346 45.1639 5.55517 44.5231 4.91434Z" fill="#0818D5"/>
<path d="M32.9219 0C32.003 0 31.2812 0.721766 31.2812 1.64062V5.03125C31.2812 5.95011 32.003 6.67188 32.9219 6.67188C33.8407 6.67188 34.5625 5.95011 34.5625 5.03125V1.64062C34.5625 0.721766 33.8407 0 32.9219 0Z" fill="#0818D5"/>
</svg>
