<svg width="117" height="50" viewBox="0 0 117 50" fill="none" xmlns="http://www.w3.org/2000/svg">
<path d="M38.9027 0.57978C39.4825 0.57978 39.9481 0.77304 40.2994 1.15956C40.6684 1.52851 40.8529 2.01166 40.8529 2.60901V17.5779C40.8529 18.1576 40.686 18.6144 40.3521 18.9483C40.0183 19.2821 39.5791 19.449 39.0345 19.449C38.5074 19.449 38.0769 19.2821 37.7431 18.9483C37.4093 18.6144 37.2424 18.1576 37.2424 17.5779V8.27504L33.5002 15.3115C33.2542 15.7682 32.9819 16.1021 32.6832 16.3129C32.4021 16.5237 32.0595 16.6291 31.6554 16.6291C31.2689 16.6291 30.9263 16.5237 30.6277 16.3129C30.329 16.1021 30.0567 15.7682 29.8107 15.3115L26.0685 8.40681V17.5779C26.0685 18.1401 25.9016 18.5969 25.5678 18.9483C25.2339 19.2821 24.7947 19.449 24.2501 19.449C23.723 19.449 23.2926 19.2821 22.9588 18.9483C22.6249 18.6144 22.458 18.1576 22.458 17.5779V2.60901C22.458 2.01166 22.6337 1.52851 22.9851 1.15956C23.3541 0.77304 23.8284 0.57978 24.4082 0.57978C25.2515 0.57978 25.8928 1.02779 26.332 1.92381L31.6818 12.07L37.0052 1.92381C37.4796 1.02779 38.1121 0.57978 38.9027 0.57978Z" fill="#0818D5"/>
<path d="M46.2763 19.449C45.6966 19.449 45.2134 19.2908 44.8269 18.9746C44.458 18.6584 44.2735 18.1928 44.2735 17.5779V7.95879C44.2735 7.34388 44.4667 6.87829 44.8533 6.56205C45.2398 6.24581 45.7141 6.08769 46.2763 6.08769C46.8386 6.08769 47.3041 6.24581 47.6731 6.56205C48.0596 6.87829 48.2529 7.34388 48.2529 7.95879V17.5779C48.2529 18.1928 48.0596 18.6584 47.6731 18.9746C47.3041 19.2908 46.8386 19.449 46.2763 19.449ZM46.2763 3.9794C45.5736 3.9794 45.0202 3.80371 44.6161 3.45233C44.212 3.08337 44.0099 2.59144 44.0099 1.97652C44.0099 1.3616 44.212 0.878455 44.6161 0.527073C45.0202 0.175691 45.5736 0 46.2763 0C46.9615 0 47.5062 0.184475 47.9103 0.553427C48.3319 0.904808 48.5428 1.37917 48.5428 1.97652C48.5428 2.59144 48.3407 3.08337 47.9366 3.45233C47.5325 3.80371 46.9791 3.9794 46.2763 3.9794Z" fill="#0818D5"/>
<path d="M62.526 6.08769C63.1234 6.08769 63.5977 6.26338 63.9491 6.61476C64.3181 6.94857 64.5026 7.39658 64.5026 7.95879V17.8941C64.5026 19.9848 63.8964 21.566 62.6842 22.6378C61.4719 23.7095 59.6974 24.2453 57.3607 24.2453C55.393 24.2453 53.7766 23.8939 52.5117 23.1912C52.1954 23.0155 51.9494 22.7959 51.7738 22.5323C51.5981 22.2864 51.5102 22.0053 51.5102 21.689C51.5102 21.2498 51.6156 20.8896 51.8265 20.6085C52.0373 20.3274 52.3184 20.1869 52.6698 20.1869C52.863 20.1869 53.0914 20.222 53.355 20.2923C53.6185 20.3801 53.8908 20.4768 54.1719 20.5822C54.7341 20.793 55.2524 20.9599 55.7268 21.0829C56.2012 21.2059 56.7107 21.2674 57.2553 21.2674C58.3797 21.2674 59.2143 21.0126 59.7589 20.5031C60.3035 19.9936 60.5759 19.2206 60.5759 18.184V16.7609C60.2069 17.4285 59.6535 17.9556 58.9156 18.3421C58.1777 18.7286 57.3519 18.9219 56.4383 18.9219C55.3139 18.9219 54.3125 18.6584 53.434 18.1313C52.5731 17.6042 51.8967 16.8575 51.4048 15.8912C50.9129 14.9074 50.6669 13.7742 50.6669 12.4916C50.6669 11.2091 50.9129 10.0847 51.4048 9.11835C51.8967 8.13448 52.5731 7.37901 53.434 6.85194C54.3125 6.3073 55.3139 6.03498 56.4383 6.03498C57.3344 6.03498 58.1425 6.22824 58.8629 6.61476C59.6008 6.98371 60.163 7.502 60.5495 8.16962V7.90609C60.5495 7.34388 60.7252 6.90465 61.0766 6.58841C61.4455 6.25459 61.9287 6.08769 62.526 6.08769ZM57.5979 15.8912C58.5291 15.8912 59.2494 15.5926 59.7589 14.9952C60.286 14.3979 60.5495 13.5633 60.5495 12.4916C60.5495 11.4199 60.286 10.5854 59.7589 9.98802C59.2494 9.3731 58.5291 9.06565 57.5979 9.06565C56.6667 9.06565 55.9376 9.3731 55.4106 9.98802C54.8835 10.5854 54.6199 11.4199 54.6199 12.4916C54.6199 13.5633 54.8835 14.3979 55.4106 14.9952C55.9376 15.5926 56.6667 15.8912 57.5979 15.8912Z" fill="#0818D5"/>
<path d="M75.2861 6.08769C75.8132 6.05255 76.2261 6.17553 76.5247 6.45664C76.841 6.72017 76.9991 7.12426 76.9991 7.6689C76.9991 8.24868 76.8586 8.67913 76.5774 8.96023C76.2963 9.24134 75.7956 9.41703 75.0753 9.4873L74.2847 9.56636C73.3184 9.67178 72.6156 9.98802 72.1764 10.5151C71.7547 11.0422 71.5439 11.7186 71.5439 12.5443V17.5779C71.5439 18.1928 71.3506 18.6584 70.9641 18.9746C70.5952 19.2908 70.1296 19.449 69.5674 19.449C68.9876 19.449 68.5045 19.2908 68.1179 18.9746C67.749 18.6584 67.5645 18.1928 67.5645 17.5779V7.90609C67.5645 7.32631 67.7578 6.87829 68.1443 6.56205C68.5308 6.24581 68.9964 6.08769 69.541 6.08769C70.0681 6.08769 70.5073 6.24581 70.8587 6.56205C71.2101 6.86073 71.3858 7.28238 71.3858 7.82702V8.53857C71.702 7.7831 72.1764 7.20332 72.8089 6.79923C73.4589 6.39514 74.1617 6.16675 74.9172 6.11404L75.2861 6.08769Z" fill="#0818D5"/>
<path d="M83.9661 6.03498C85.8636 6.03498 87.2691 6.50056 88.1827 7.43172C89.0963 8.34531 89.5531 9.75084 89.5531 11.6483V17.6042C89.5531 18.184 89.3862 18.6408 89.0524 18.9746C88.7186 19.2908 88.253 19.449 87.6556 19.449C87.0934 19.449 86.6366 19.2821 86.2853 18.9483C85.9514 18.5969 85.7845 18.1489 85.7845 17.6042V17.4197C85.521 18.0698 85.0818 18.5793 84.4669 18.9483C83.8519 19.3172 83.1316 19.5017 82.3059 19.5017C81.4274 19.5017 80.628 19.326 79.9077 18.9746C79.2049 18.6232 78.6427 18.1313 78.2211 17.4988C77.817 16.8663 77.6149 16.1636 77.6149 15.3905C77.6149 14.4418 77.8521 13.6951 78.3265 13.1505C78.8184 12.6058 79.6002 12.2105 80.6719 11.9645C81.7436 11.7186 83.2107 11.5956 85.073 11.5956H85.7582V11.1212C85.7582 10.3833 85.5913 9.84747 85.2575 9.51366C84.9412 9.17984 84.4054 9.01294 83.6499 9.01294C82.8944 9.01294 81.8051 9.27647 80.382 9.80355C79.978 9.99681 79.6354 10.0934 79.3543 10.0934C78.9677 10.0934 78.6603 9.96167 78.4319 9.69813C78.2035 9.41703 78.0893 9.05686 78.0893 8.61763C78.0893 8.26625 78.1683 7.97636 78.3265 7.74796C78.4846 7.51957 78.7393 7.30874 79.0907 7.11548C79.7056 6.78166 80.4523 6.51813 81.3308 6.32487C82.2268 6.13161 83.1053 6.03498 83.9661 6.03498ZM83.1755 16.7609C83.9486 16.7609 84.5723 16.5061 85.0466 15.9966C85.521 15.4696 85.7582 14.7932 85.7582 13.9674V13.5194H85.3102C83.8871 13.5194 82.8856 13.6336 82.3059 13.862C81.7436 14.0904 81.4625 14.5033 81.4625 15.1006C81.4625 15.5926 81.6207 15.9966 81.9369 16.3129C82.2707 16.6116 82.6836 16.7609 83.1755 16.7609Z" fill="#0818D5"/>
<path d="M100.645 6.03498C102.191 6.03498 103.342 6.49178 104.098 7.40537C104.853 8.30139 105.231 9.66299 105.231 11.4902V17.5779C105.231 18.1576 105.046 18.6144 104.677 18.9483C104.326 19.2821 103.843 19.449 103.228 19.449C102.613 19.449 102.13 19.2821 101.779 18.9483C101.427 18.6144 101.251 18.1576 101.251 17.5779V11.6747C101.251 10.7962 101.085 10.1549 100.751 9.75084C100.434 9.34675 99.9338 9.14471 99.2486 9.14471C98.4228 9.14471 97.7552 9.40824 97.2457 9.93531C96.7537 10.4624 96.5078 11.1651 96.5078 12.0436V17.5779C96.5078 18.1576 96.3321 18.6144 95.9807 18.9483C95.6293 19.2821 95.1462 19.449 94.5313 19.449C93.9164 19.449 93.4244 19.2821 93.0555 18.9483C92.7041 18.6144 92.5284 18.1576 92.5284 17.5779V7.90609C92.5284 7.36144 92.7129 6.92222 93.0818 6.58841C93.4683 6.25459 93.9603 6.08769 94.5576 6.08769C95.1023 6.08769 95.5415 6.25459 95.8753 6.58841C96.2267 6.90465 96.4024 7.31752 96.4024 7.82702V8.19598C96.8592 7.49321 97.4477 6.95736 98.1681 6.58841C98.906 6.21945 99.7317 6.03498 100.645 6.03498Z" fill="#0818D5"/>
<path d="M115.396 16.5501C115.923 16.5852 116.31 16.717 116.556 16.9454C116.802 17.1738 116.925 17.5076 116.925 17.9468C116.925 18.4563 116.723 18.8428 116.318 19.1064C115.914 19.3699 115.335 19.4753 114.579 19.4226L113.841 19.3699C110.767 19.1239 109.229 17.5164 109.229 14.5472V9.32918H108.175C107.595 9.32918 107.156 9.2062 106.858 8.96023C106.559 8.6967 106.41 8.32774 106.41 7.85338C106.41 7.36144 106.559 6.99249 106.858 6.74653C107.156 6.48299 107.595 6.35122 108.175 6.35122H109.229V4.29564C109.229 3.71586 109.405 3.25906 109.756 2.92525C110.125 2.59144 110.617 2.42453 111.232 2.42453C111.847 2.42453 112.33 2.59144 112.682 2.92525C113.033 3.25906 113.209 3.71586 113.209 4.29564V6.35122H115.054C116.248 6.35122 116.846 6.85194 116.846 7.85338C116.846 8.32774 116.696 8.6967 116.398 8.96023C116.099 9.2062 115.651 9.32918 115.054 9.32918H113.209V14.8371C113.209 15.3642 113.332 15.7682 113.578 16.0494C113.824 16.3129 114.184 16.4622 114.658 16.4974L115.396 16.5501Z" fill="#0818D5"/>
<path d="M27.9132 31.7897C29.8107 31.7897 31.2162 32.2552 32.1298 33.1864C33.0434 34.1 33.5002 35.5055 33.5002 37.403V43.3589C33.5002 43.9387 33.3333 44.3955 32.9995 44.7293C32.6657 45.0455 32.2001 45.2036 31.6027 45.2036C31.0405 45.2036 30.5837 45.0367 30.2324 44.7029C29.8985 44.3515 29.7316 43.9035 29.7316 43.3589V43.1744C29.4681 43.8245 29.0289 44.334 28.414 44.7029C27.799 45.0719 27.0787 45.2563 26.253 45.2563C25.3745 45.2563 24.5751 45.0807 23.8548 44.7293C23.152 44.3779 22.5898 43.886 22.1681 43.2535C21.7641 42.621 21.562 41.9182 21.562 41.1452C21.562 40.1965 21.7992 39.4498 22.2736 38.9051C22.7655 38.3605 23.5473 37.9652 24.619 37.7192C25.6907 37.4732 27.1578 37.3503 29.0201 37.3503H29.7053V36.8759C29.7053 36.138 29.5384 35.6021 29.2046 35.2683C28.8883 34.9345 28.3525 34.7676 27.597 34.7676C26.8415 34.7676 25.7522 35.0311 24.3291 35.5582C23.9251 35.7515 23.5825 35.8481 23.3014 35.8481C22.9148 35.8481 22.6074 35.7163 22.379 35.4528C22.1506 35.1717 22.0364 34.8115 22.0364 34.3723C22.0364 34.0209 22.1154 33.731 22.2736 33.5026C22.4317 33.2742 22.6864 33.0634 23.0378 32.8702C23.6527 32.5363 24.3994 32.2728 25.2779 32.0795C26.1739 31.8863 27.0523 31.7897 27.9132 31.7897ZM27.1226 42.5156C27.8957 42.5156 28.5194 42.2608 28.9937 41.7513C29.4681 41.2242 29.7053 40.5478 29.7053 39.7221V39.2741H29.2573C27.8342 39.2741 26.8327 39.3883 26.253 39.6167C25.6907 39.8451 25.4096 40.2579 25.4096 40.8553C25.4096 41.3472 25.5678 41.7513 25.884 42.0676C26.2178 42.3662 26.6307 42.5156 27.1226 42.5156Z" fill="#0818D5"/>
<path d="M47.7021 31.8424C48.2995 31.8424 48.7738 32.018 49.1252 32.3694C49.4942 32.7032 49.6786 33.1513 49.6786 33.7135V43.6488C49.6786 45.7395 49.0725 47.3207 47.8602 48.3924C46.648 49.4641 44.8735 50 42.5368 50C40.5691 50 38.9527 49.6486 37.6877 48.9459C37.3715 48.7702 37.1255 48.5506 36.9498 48.287C36.7742 48.041 36.6863 47.7599 36.6863 47.4437C36.6863 47.0045 36.7917 46.6443 37.0026 46.3632C37.2134 46.0821 37.4945 45.9415 37.8459 45.9415C38.0391 45.9415 38.2675 45.9767 38.5311 46.047C38.7946 46.1348 39.0669 46.2314 39.348 46.3368C39.9102 46.5477 40.4285 46.7146 40.9029 46.8376C41.3773 46.9605 41.8868 47.022 42.4314 47.022C43.5558 47.022 44.3903 46.7673 44.935 46.2578C45.4796 45.7483 45.752 44.9752 45.752 43.9387V42.5156C45.383 43.1832 44.8296 43.7103 44.0917 44.0968C43.3538 44.4833 42.528 44.6766 41.6144 44.6766C40.49 44.6766 39.4886 44.413 38.6101 43.886C37.7492 43.3589 37.0728 42.6122 36.5809 41.6459C36.089 40.662 35.843 39.5288 35.843 38.2463C35.843 36.9637 36.089 35.8393 36.5809 34.873C37.0728 33.8892 37.7492 33.1337 38.6101 32.6066C39.4886 32.062 40.49 31.7897 41.6144 31.7897C42.5105 31.7897 43.3186 31.9829 44.039 32.3694C44.7769 32.7384 45.3391 33.2567 45.7256 33.9243V33.6608C45.7256 33.0985 45.9013 32.6593 46.2527 32.3431C46.6216 32.0093 47.1048 31.8424 47.7021 31.8424ZM42.774 41.6459C43.7052 41.6459 44.4255 41.3472 44.935 40.7499C45.4621 40.1525 45.7256 39.318 45.7256 38.2463C45.7256 37.1746 45.4621 36.34 44.935 35.7427C44.4255 35.1278 43.7052 34.8203 42.774 34.8203C41.8428 34.8203 41.1137 35.1278 40.5866 35.7427C40.0596 36.34 39.796 37.1746 39.796 38.2463C39.796 39.318 40.0596 40.1525 40.5866 40.7499C41.1137 41.3472 41.8428 41.6459 42.774 41.6459Z" fill="#0818D5"/>
<path d="M63.1239 41.1979C63.4753 41.1979 63.7564 41.3384 63.9672 41.6195C64.1956 41.9007 64.3098 42.2608 64.3098 42.7C64.3098 42.9987 64.222 43.2798 64.0463 43.5434C63.8706 43.7893 63.6246 44.0002 63.3084 44.1758C62.7111 44.4921 62.0171 44.7556 61.2265 44.9665C60.4359 45.1597 59.7067 45.2563 59.0391 45.2563C57.6336 45.2563 56.4038 44.984 55.3496 44.4394C54.313 43.8947 53.5136 43.1217 52.9514 42.1203C52.3892 41.1013 52.1081 39.9066 52.1081 38.5362C52.1081 37.2185 52.3804 36.0502 52.9251 35.0311C53.4697 34.0121 54.2252 33.2215 55.1915 32.6593C56.1578 32.0795 57.2559 31.7897 58.4857 31.7897C59.6628 31.7897 60.6906 32.0532 61.5691 32.5803C62.4651 33.0898 63.1591 33.8277 63.651 34.794C64.1429 35.7427 64.3889 36.8583 64.3889 38.1409C64.3889 38.5274 64.2923 38.8261 64.099 39.0369C63.9233 39.2302 63.6686 39.3268 63.3348 39.3268H55.9557C56.0787 40.3634 56.395 41.1188 56.9045 41.5932C57.414 42.05 58.1431 42.2784 59.0918 42.2784C59.6013 42.2784 60.0581 42.2169 60.4622 42.0939C60.8663 41.9709 61.3143 41.804 61.8063 41.5932C62.0522 41.4878 62.2894 41.3999 62.5178 41.3297C62.7462 41.2418 62.9482 41.1979 63.1239 41.1979ZM58.5911 34.5304C57.8356 34.5304 57.2295 34.7764 56.7727 35.2683C56.3159 35.7427 56.0436 36.4367 55.9557 37.3503H61.042C60.9893 36.4191 60.7521 35.7163 60.3304 35.242C59.9264 34.7676 59.3466 34.5304 58.5911 34.5304Z" fill="#0818D5"/>
<path d="M74.9094 31.7897C76.4554 31.7897 77.6062 32.2464 78.3617 33.16C79.1171 34.0561 79.4949 35.4177 79.4949 37.2449V43.3325C79.4949 43.9123 79.3104 44.3691 78.9415 44.7029C78.5901 45.0367 78.1069 45.2036 77.492 45.2036C76.8771 45.2036 76.3939 45.0367 76.0426 44.7029C75.6912 44.3691 75.5155 43.9123 75.5155 43.3325V37.4293C75.5155 36.5509 75.3486 35.9096 75.0148 35.5055C74.6985 35.1014 74.1978 34.8994 73.5126 34.8994C72.6869 34.8994 72.0192 35.1629 71.5097 35.69C71.0178 36.2171 70.7718 36.9198 70.7718 37.7983V43.3325C70.7718 43.9123 70.5961 44.3691 70.2448 44.7029C69.8934 45.0367 69.4102 45.2036 68.7953 45.2036C68.1804 45.2036 67.6885 45.0367 67.3195 44.7029C66.9681 44.3691 66.7924 43.9123 66.7924 43.3325V33.6608C66.7924 33.1161 66.9769 32.6769 67.3459 32.3431C67.7324 32.0093 68.2243 31.8424 68.8217 31.8424C69.3663 31.8424 69.8055 32.0093 70.1393 32.3431C70.4907 32.6593 70.6664 33.0722 70.6664 33.5817V33.9506C71.1232 33.2479 71.7118 32.712 72.4321 32.3431C73.17 31.9741 73.9958 31.7897 74.9094 31.7897Z" fill="#0818D5"/>
<path d="M88.4479 45.2563C87.1126 45.2563 85.9443 44.984 84.9429 44.4394C83.9414 43.8947 83.1684 43.1217 82.6238 42.1203C82.0967 41.1188 81.8331 39.9417 81.8331 38.5889C81.8331 37.2361 82.1142 36.0502 82.6765 35.0311C83.2562 33.9946 84.0644 33.1952 85.101 32.633C86.1376 32.0708 87.3323 31.7897 88.6851 31.7897C89.3878 31.7897 90.0906 31.8863 90.7934 32.0795C91.5137 32.2728 92.155 32.5451 92.7172 32.8965C93.2618 33.2303 93.5341 33.7223 93.5341 34.3723C93.5341 34.8291 93.4287 35.2068 93.2179 35.5055C93.0071 35.7866 92.726 35.9272 92.3746 35.9272C92.1462 35.9272 91.9266 35.892 91.7158 35.8218C91.5225 35.7339 91.259 35.6109 90.9251 35.4528C90.5562 35.2595 90.2224 35.1102 89.9237 35.0048C89.6426 34.8994 89.3176 34.8467 88.9486 34.8467C87.9647 34.8467 87.2093 35.1629 86.6822 35.7954C86.1727 36.4103 85.918 37.3151 85.918 38.5098C85.918 39.7045 86.1727 40.6181 86.6822 41.2506C87.2093 41.8831 87.9647 42.1993 88.9486 42.1993C89.3176 42.1993 89.6426 42.1554 89.9237 42.0676C90.2048 41.9621 90.5474 41.804 90.9515 41.5932C91.2853 41.4351 91.5488 41.3209 91.7421 41.2506C91.9354 41.1628 92.1462 41.1188 92.3746 41.1188C92.7084 41.1188 92.9807 41.2682 93.1916 41.5668C93.42 41.8655 93.5341 42.2433 93.5341 42.7C93.5341 43.3501 93.2618 43.8333 92.7172 44.1495C92.155 44.5009 91.5049 44.7732 90.767 44.9665C90.0291 45.1597 89.2561 45.2563 88.4479 45.2563Z" fill="#0818D5"/>
<path d="M104.316 32.9756C104.475 32.6066 104.694 32.3343 104.975 32.1586C105.274 31.9829 105.59 31.8951 105.924 31.8951C106.434 31.8951 106.882 32.062 107.268 32.3958C107.655 32.712 107.848 33.0985 107.848 33.5553C107.848 33.8013 107.786 34.0473 107.663 34.2932L100.574 48.8404C100.399 49.2094 100.161 49.4817 99.8627 49.6574C99.564 49.8507 99.2478 49.9473 98.914 49.9473C98.4221 49.9473 97.9916 49.7892 97.6227 49.4729C97.2537 49.1567 97.0692 48.7702 97.0692 48.3134C97.0692 48.0323 97.1307 47.7687 97.2537 47.5228L98.9931 43.9123L94.3021 34.2932C94.1967 34.0473 94.144 33.8101 94.144 33.5817C94.144 33.1073 94.346 32.7032 94.7501 32.3694C95.1718 32.0356 95.6461 31.8687 96.1732 31.8687C96.5246 31.8687 96.8496 31.9653 97.1483 32.1586C97.447 32.3343 97.6842 32.6066 97.8598 32.9756L101.128 40.091L104.316 32.9756Z" fill="#0818D5"/>
<rect x="9.58313" y="0.12458" width="5.98946" height="49.7125" rx="2.99473" fill="#0818D5"/>
<circle cx="2.99473" cy="3.11913" r="2.99473" fill="#0818D5"/>
<circle cx="2.99473" cy="46.8424" r="2.99473" fill="#0818D5"/>
</svg>
