<svg width="20" height="20" viewBox="0 0 20 20" fill="none" xmlns="http://www.w3.org/2000/svg">
<path d="M18.7283 14.3181L16.1519 11.7418C15.2318 10.8216 13.6676 11.1897 13.2995 12.3859C13.0235 13.214 12.1034 13.6741 11.2752 13.49C9.43498 13.03 6.95063 10.6376 6.49056 8.70535C6.21452 7.8772 6.7666 6.95707 7.59472 6.68106C8.79089 6.31301 9.15894 4.74879 8.23881 3.82866L5.66245 1.2523C4.92634 0.608207 3.82219 0.608207 3.1781 1.2523L1.42985 3.00054C-0.318397 4.8408 1.61388 9.71749 5.93848 14.0421C10.2631 18.3667 15.1398 20.391 16.98 18.5507L18.7283 16.8025C19.3724 16.0664 19.3724 14.9622 18.7283 14.3181Z" fill="#0818D5"/>
</svg>
