<svg width="56" height="56" viewBox="0 0 56 56" fill="none" xmlns="http://www.w3.org/2000/svg">
<path d="M36.75 3.5H32.949C32.228 1.463 30.282 0 28 0C25.718 0 23.772 1.463 23.0475 3.5H19.25C18.284 3.5 17.5 4.284 17.5 5.25V12.25C17.5 13.216 18.284 14 19.25 14H36.75C37.716 14 38.5 13.216 38.5 12.25V5.25C38.5 4.284 37.716 3.5 36.75 3.5Z" fill="#0818D5"/>
<path d="M45.5 7H42V12.25C42 15.1445 39.6445 17.5 36.75 17.5H19.25C16.3555 17.5 14 15.1445 14 12.25V7H10.5C8.5715 7 7 8.5715 7 10.5V52.5C7 54.4635 8.5365 56 10.5 56H45.5C47.4635 56 49 54.4635 49 52.5V10.5C49 8.5365 47.4635 7 45.5 7ZM27.489 37.989L20.489 44.989C20.146 45.3285 19.698 45.5 19.25 45.5C18.802 45.5 18.354 45.3285 18.011 44.989L14.511 41.489C13.8285 40.8065 13.8285 39.697 14.511 39.0145C15.1935 38.332 16.303 38.332 16.9855 39.0145L19.25 41.2755L25.011 35.5145C25.6935 34.832 26.803 34.832 27.4855 35.5145C28.168 36.197 28.1715 37.303 27.489 37.989ZM27.489 23.989L20.489 30.989C20.146 31.3285 19.698 31.5 19.25 31.5C18.802 31.5 18.354 31.3285 18.011 30.989L14.511 27.489C13.8285 26.8065 13.8285 25.697 14.511 25.0145C15.1935 24.332 16.303 24.332 16.9855 25.0145L19.25 27.2755L25.011 21.5145C25.6935 20.832 26.803 20.832 27.4855 21.5145C28.168 22.197 28.1715 23.303 27.489 23.989ZM40.25 42H33.25C32.284 42 31.5 41.216 31.5 40.25C31.5 39.284 32.284 38.5 33.25 38.5H40.25C41.216 38.5 42 39.284 42 40.25C42 41.216 41.216 42 40.25 42ZM40.25 28H33.25C32.284 28 31.5 27.216 31.5 26.25C31.5 25.284 32.284 24.5 33.25 24.5H40.25C41.216 24.5 42 25.284 42 26.25C42 27.216 41.216 28 40.25 28Z" fill="#0818D5"/>
</svg>
